<?xml version="1.0" encoding="iso-8859-1"?>
<!-- Generator: Adobe Illustrator 19.0.0, SVG Export Plug-In . SVG Version: 6.00 Build 0)  -->
<svg xmlns="http://www.w3.org/2000/svg" xmlns:xlink="http://www.w3.org/1999/xlink" version="1.1" id="Capa_1" x="0px" y="0px" viewBox="0 0 512 512" style="enable-background:new 0 0 512 512;" xml:space="preserve" width="512" height="512">
<g>
	<path style="fill:#78BAF6;" d="M0,69.227v343.338c0,16.066,13.024,29.09,29.09,29.09h336.314c16.066,0,29.09-13.024,29.09-29.09   V69.227c0-16.066-13.024-29.09-29.09-29.09H29.09C13.024,40.137,0,53.161,0,69.227z"/>
	<path style="fill:#1885DA;" d="M365.404,40.137h-20.667c16.066,0,29.09,13.024,29.09,29.09v343.338   c0,16.066-13.024,29.09-29.09,29.09h20.667c16.066,0,29.09-13.024,29.09-29.09V69.227C394.494,53.161,381.47,40.137,365.404,40.137   z"/>
	<path style="fill:#D8E6F0;" d="M197.247,127.506c48.253,0,87.369-39.117,87.369-87.369H109.878   C109.878,88.39,148.994,127.506,197.247,127.506z"/>
	<path style="fill:#606572;" d="M332.878,83.595L332.878,83.595c-7.099,0-13.554,4.135-16.497,10.596   c-20.609,45.246-66.257,76.773-119.133,76.773S98.723,139.438,78.114,94.191c-2.943-6.461-9.398-10.596-16.497-10.596   c-10.028,0-18.158,8.13-18.158,18.158v248.361c0,26.555,21.527,48.081,48.082,48.081h211.414c26.555,0,48.082-21.527,48.082-48.081   V101.753C351.036,91.725,342.906,83.595,332.878,83.595z"/>
	<g>
		<path style="fill:#202D4C;" d="M197.247,94.254c-4.143,0-7.5-3.358-7.5-7.5V66.383c0-4.142,3.357-7.5,7.5-7.5s7.5,3.358,7.5,7.5    v20.371C204.747,90.896,201.39,94.254,197.247,94.254z"/>
		<path style="fill:#202D4C;" d="M234.368,84.069c-4.143,0-7.5-3.358-7.5-7.5V66.383c0-4.142,3.357-7.5,7.5-7.5s7.5,3.358,7.5,7.5    v10.186C241.868,80.711,238.511,84.069,234.368,84.069z"/>
		<path style="fill:#202D4C;" d="M160.126,84.069c-4.143,0-7.5-3.358-7.5-7.5V66.383c0-4.142,3.357-7.5,7.5-7.5s7.5,3.358,7.5,7.5    v10.186C167.626,80.711,164.269,84.069,160.126,84.069z"/>
	</g>
	<g>
		<path style="fill:#FF7870;" d="M511.868,332.59c-2.108-33.297-29.884-59.757-63.243-60.322    c-13.931-0.236-26.868,3.949-37.51,11.242c-9.966,6.83-23.274,6.831-33.241,0c-10.643-7.294-23.582-11.479-37.514-11.242    c-33.358,0.568-61.132,27.028-63.24,60.324c-0.687,10.853,1.338,21.16,5.425,30.345l-0.002,0.001    c21.157,47.621,21.349,48.052,36.013,81.058c0.094,0.224,0.198,0.443,0.295,0.665c0.029,0.064,0.055,0.123,0.084,0.188l0.001,0    c7.081,15.913,23.019,27.014,41.561,27.014c6.763,0,13.18-1.478,18.947-4.127c9.599-4.41,20.502-4.41,30.1,0    c5.767,2.649,12.184,4.127,18.947,4.127c18.541,0,34.48-11.101,41.561-27.014l0.001,0c0.029-0.065,0.055-0.124,0.084-0.188    c0.097-0.222,0.201-0.441,0.295-0.665c14.664-33.006,14.856-33.437,36.013-81.058l-0.002-0.001    C510.531,353.752,512.555,343.444,511.868,332.59z"/>
		<path style="fill:#D7352E;" d="M511.868,332.591c-2.108-33.297-29.884-59.757-63.243-60.322    c-5.56-0.094-10.957,0.527-16.118,1.757c26.94,6.447,47.676,29.978,49.486,58.565c0.687,10.854-1.337,21.161-5.425,30.348l0.002,0    c-21.157,47.621-21.349,48.052-36.013,81.058c-0.094,0.224-0.198,0.443-0.296,0.665c-0.028,0.064-0.055,0.123-0.084,0.188    l-0.001,0c-5.08,11.417-14.72,20.355-26.609,24.496c4.675,1.626,9.694,2.518,14.923,2.518c18.541,0,34.48-11.101,41.561-27.014    l0.001,0c0.029-0.065,0.055-0.124,0.083-0.188c0.098-0.222,0.201-0.441,0.296-0.665c14.664-33.006,14.856-33.437,36.013-81.058    l-0.002,0C510.531,353.751,512.555,343.444,511.868,332.591z"/>
		<path style="fill:#B78358;" d="M394.494,296.133c-4.143,0-7.5-3.358-7.5-7.5v-47.925c0-4.142,3.357-7.5,7.5-7.5s7.5,3.358,7.5,7.5    v47.925C401.994,292.775,398.637,296.133,394.494,296.133z"/>
		<path style="fill:#5AEEBE;" d="M471.555,191.879c-17.405-10.026-39.008-10.026-56.374,0    c-17.366,10.027-28.167,28.734-28.187,48.822c-0.003,2.685,1.43,5.167,3.757,6.506c8.703,5.013,18.454,7.52,28.201,7.52    s19.489-2.507,28.172-7.52c17.367-10.027,28.168-28.734,28.188-48.821C475.314,195.701,473.882,193.219,471.555,191.879z"/>
	</g>
</g>















</svg>
